<svg xmlns="http://www.w3.org/2000/svg" id="Layer_2" data-name="Layer 2" viewBox="0 0 959.59 135.14"><defs><style>.cls-1 { fill: #f04e23; } .cls-2, .cls-3 { fill: #2d3186; } .cls-3 { fill-rule: evenodd; }</style></defs><g id="Layer_2-2" data-name="Layer 2"><g id="Layer_1-2" data-name="Layer 1-2"><g><path class="cls-2" d="m295.73 25.02c-6.52.0-11.57 3.32-15.05 9.87l.23-9.98-28.99 6.88-2.41-22.81h-66.68l-2.84 26.92h2.62l.11-.96c1.77-15.26 9.1-22.88 22.41-23.27v48.64c0 11.29-.41 15.86-10.6 15.86h-1.09v2.61h45.46v-2.61h-1.09c-10.19.0-10.6-4.58-10.6-15.86V11.67c13.31.39 20.65 8.01 22.41 23.27l.11.96h2.62l-.16-1.48.64-.15c1.67-.38 3-.57 4.06-.57 3.23.0 3.69 1.57 3.69 7.38v24.63c0 9.28-.78 10.46-6.93 10.46h-1.09v2.61h37.34v-2.61h-1.09c-7.15.0-8.14-1.27-8.14-10.46V41.89c2.35-7.18 5.67-11.47 8.91-11.47.79.0 3.21.0 3.21 4.18.0 2.67-1.53 4.78-4.09 5.63l-.79.26.04.83c.33 6.32 5.1 9.15 9.69 9.15 6.73.0 11.81-5.29 11.81-12.3.0-9.04-7.12-13.16-13.75-13.16h.03z"/><path class="cls-2" d="m380.23 71.21-1.47-2.06-.89.67c-1.43 1.07-2.6 1.57-3.69 1.57-2.51.0-3.4-1.55-3.4-5.91V25l-27.3 4.97.53 2.62 1.05-.19c.82-.15 1.55-.22 2.17-.22 2.99.0 3.41 1.51 3.41 7.07v26.44c-2.3 2.53-5.09 3.97-7.7 3.97-4.14.0-4.71-3.61-4.71-7.51V25l-29.52 5.36.53 2.62 1.05-.19c1.49-.26 2.7-.39 3.71-.39 3.61.0 4.09 1.38 4.09 6.86v24.83c0 10.56 3.94 15.48 12.39 15.48 6.73.0 13.57-3.46 20.37-10.28.27 3.18 1.2 5.54 2.81 7.19 1.91 1.95 4.77 2.9 8.75 2.9 7.38.0 13.28-4.28 17.08-7.51l.77-.65h-.03z"/><path class="cls-2" d="m431.25 60.89c0-11.59-11.88-15.59-21.42-18.8-6.96-2.34-12.97-4.37-12.97-8.34.0-3.62 3.83-6.06 9.54-6.06 3.31.0 14.36 1.15 17.48 15.94l.18.87h2.42l-1.11-19.6-6.89 1.92c-3.7-1.09-8.4-1.79-12.09-1.79-11.91.0-25.82 4.56-25.82 17.42.0 11.67 12.24 16.21 22.08 19.86 6.97 2.58 12.99 4.81 12.99 8.55.0 5.47-7.95 6.06-11.37 6.06-3.02.0-18.23-.94-21.14-19.46l-.14-.92h-2.47l1.19 23.15 7.9-2c5.81 1.23 11.01 1.9 14.66 1.9 16.64.0 26.98-7.15 26.98-18.67v-.03z"/><path class="cls-2" d="m468.67 67.98c-2.3 2.2-4.27 3.22-6.2 3.22-3.19.0-3.79-2.88-3.79-8.18V28.46h9.95V25.8h-9.95V6.57h-2.59l-.07 1.01c-.32 4.48-1.83 10.81-4.11 14.38-3.62 2.54-9.34 3.83-17.02 3.83h-3.31v2.66h7.05v36.78c0 9.21 4.5 14.28 12.68 14.28 6.71.0 13.33-3.35 19.16-9.68l.6-.65-1.49-2.08-.91.87h0z"/><path class="cls-2" d="m537.79 8.99H471.1l-2.84 26.91h2.62l.11-.96c1.77-15.26 9.1-22.88 22.41-23.27v48.64c0 11.29-.41 15.86-10.6 15.86h-1.09v2.61h45.46v-2.61h-1.09c-10.19.0-10.6-4.58-10.6-15.86V11.67c13.31.39 20.65 8.01 22.41 23.27l.11.96h2.62l-2.84-26.91h.01z"/><path class="cls-2" d="m575.98 76.18h-1.09v2.61h33.62v-2.61h-1.09c-6.15.0-6.93-1.17-6.93-10.45V40.52c0-10.56-3.92-15.48-12.34-15.48-5.9.0-11.7 2.66-20.28 9.41l.33-34.43-29.69 7.04.57 2.56 1.07-.24c1.67-.38 3-.57 4.06-.57 3.23.0 3.69 1.57 3.69 7.38v49.56c0 9.28-.78 10.46-6.93 10.46h-1.09v2.61h33.72v-2.61h-1.09c-3.86.0-4.51-2.61-4.51-10.46V37.86c2.64-2.21 5.25-3.38 7.55-3.38 3.4.0 4.85 2.48 4.85 8.28v22.99c0 9.18-.54 10.45-4.42 10.45v-.02z"/><path class="cls-2" d="m660.51 60.06.37-.88-2.06-1.19-.56.87c-3.18 4.88-9.77 6.61-14.45 6.61-9.55.0-15.41-6.39-16.2-17.58h31.88l.21-.82c1.38-5.48.54-10.4-2.45-14.22-3.95-5.07-11.43-7.86-21.07-7.86-17.11.0-29.06 11.59-29.06 28.19s13.06 26.4 25.97 26.4 22.28-7.11 27.43-19.51h0zm-24.34-32.42c1.32.0 2.36.52 3.19 1.58 2.62 3.39 2.32 11.15 1.26 15.9H627.5c0-4.14.64-17.48 8.67-17.48h0z"/><path class="cls-2" d="m704.47 10.88c14.5.0 21.02 13.89 22.2 25.78l.1.98h2.57l-1.69-29.55-8.34 2.31c-2.33-.69-8.66-2.18-14.84-2.18-23.39.0-41.04 15.34-41.04 35.68s17.64 35.67 41.04 35.67c5.9.0 12.1-1.37 14.84-2.18l8.34 2.31 1.69-29.55h-2.57l-.1.98c-1.18 11.89-7.71 25.78-22.2 25.78-11.48.0-16.83-10.49-16.83-33.01s5.35-33.01 16.83-33.01h0z"/><path class="cls-2" d="m817.84 24.02c6.54.0 11.86-5.36 11.86-11.96s-5.21-11.76-11.86-11.76-11.86 5.28-11.86 11.76 5.32 11.96 11.86 11.96z"/><path class="cls-2" d="m863.42 65.72V0l-29.48 7.04.57 2.55 1.07-.24c1.67-.38 3-.57 4.06-.57 3.23.0 3.69 1.57 3.69 7.38v49.56c0 9.28-.78 10.45-6.93 10.45h-1.55c-6.15.0-6.93-1.17-6.93-10.45V37.24l.22-12.32-29.75 7.04.57 2.55 1.07-.24c1.67-.38 3-.57 4.06-.57 3.23.0 3.69 1.57 3.69 7.38v24.64c0 9.28-.78 10.45-6.93 10.45h-1.55c-6.15.0-6.93-1.17-6.93-10.45V40.51c0-10.56-3.92-15.48-12.34-15.48-5.9.0-11.7 2.66-20.28 9.41L760.08.01l-29.69 7.04.57 2.56 1.07-.24c1.67-.38 3-.57 4.06-.57 3.23.0 3.69 1.57 3.69 7.38v49.56c0 9.28-.78 10.46-6.93 10.46h-1.09v2.61h33.72V76.2h-1.09c-3.86.0-4.51-2.61-4.51-10.46V37.85c2.64-2.21 5.25-3.38 7.55-3.38 3.4.0 4.85 2.48 4.85 8.28v22.99c0 9.18-.54 10.45-4.42 10.45h-1.09v2.61h104.68v-2.61h-1.09c-6.15.0-6.93-1.17-6.93-10.45v-.02z"/><path class="cls-2" d="m933.45 69.83c-1.43 1.07-2.6 1.57-3.69 1.57-2.51.0-3.4-1.55-3.4-5.91V0l-29.68 7.04.57 2.55 1.07-.24c1.65-.38 2.97-.56 4.02-.56 3.22.0 3.6 1.5 3.73 7.4l.21 9.64c-1.69-.53-3.44-.8-5.16-.8-17.71.0-30.07 12.05-30.07 29.3.0 15.1 8.05 25.24 20.03 25.24 6.01.0 11.34-3.08 15.86-9.16 1.32 5.6 5.36 8.97 11.04 8.97 7.38.0 13.28-4.28 17.08-7.51l.76-.64-1.46-2.07-.9.67h-.01zM906.3 66.7c-2.37 3.52-4.15 5.81-6.74 5.81-5.99.0-6.64-12.72-6.64-18.18.0-23.47 4.14-26.64 8.18-26.64 4.36.0 5.19 3.18 5.19 9.05v29.95h.01z"/><ellipse class="cls-1" cx="947.87" cy="68.33" rx="11.72" ry="11.23"/><path class="cls-1" d="m937.24 68.33c0-5.6 4.73-10.14 10.63-10.14s10.63 4.54 10.63 10.14-4.83 10.14-10.63 10.14-10.63-4.54-10.63-10.14z"/></g><g><path class="cls-2" d="m179.82 131.86v-21.08c0-2 1.44-3.44 3.28-3.44 1.64.0 2.56.64 3.56 2.2l7 11 6.88-11c.96-1.52 1.96-2.2 3.32-2.2 1.92.0 3.4 1.52 3.4 3.44v21.08c0 1.72-1.32 3.08-3.04 3.08s-3.04-1.36-3.04-3.08v-13.32l-4.56 6.92c-.92 1.36-1.96 1.96-3.16 1.96-1.12.0-2.16-.56-3.08-1.96l-4.52-6.72v13.12c0 1.8-1.32 3.08-3.04 3.08s-3-1.28-3-3.08z"/><path class="cls-2" d="m233.58 121.14c0-8.24 6.32-14 14.16-14s14.12 5.76 14.12 14-6.32 14-14.12 14-14.16-5.72-14.16-14zm14.16 8.48c4.16.0 7.72-3.16 7.72-8.48s-3.56-8.48-7.72-8.48-7.76 3.16-7.76 8.48 3.6 8.48 7.76 8.48z"/><path class="cls-2" d="m288.18 132.06v-21.2c0-2 1.6-3.52 3.6-3.52 1 0 2.2.32 3.4 1.92l11.16 15.2h.04v-14.24c0-1.6 1.28-2.88 3-2.88s3 1.28 3 2.88v21.16c0 2-1.6 3.56-3.6 3.56-1 0-2.32-.44-3.48-2.04l-11.04-14.88h-.08l.04 14.04c0 1.6-1.28 2.88-3.04 2.88s-3-1.28-3-2.88h0z"/><path class="cls-2" d="m346.46 131.86v-18.88h-5.96c-1.52.0-2.68-1.16-2.68-2.72s1.16-2.72 2.68-2.72h18.12c1.48.0 2.64 1.16 2.64 2.72s-1.16 2.72-2.64 2.72h-6v18.88c0 1.72-1.36 3.08-3.08 3.08s-3.08-1.36-3.08-3.08h0z"/><path class="cls-2" d="m386.7 131.7v-21.08c0-1.72 1.28-3.08 2.96-3.08h11.64c1.56.0 2.76 1.2 2.76 2.76s-1.2 2.68-2.76 2.68h-8.44v5.52h7.24c1.48.0 2.64 1.16 2.64 2.56s-1.16 2.56-2.64 2.56h-7.24v5.68h8.88c1.56.0 2.76 1.12 2.76 2.68s-1.2 2.76-2.76 2.76h-12.08c-1.68.0-2.96-1.32-2.96-3.04h0z"/><path class="cls-2" d="m430.94 132.9c-1.16-.76-1.92-1.64-1.92-3 0-1.56 1.24-2.68 2.76-2.68.92.0 1.64.44 2.36.92 1.16.72 2.48 1.48 4.64 1.48s3.56-1.08 3.56-2.56c0-1.88-2.4-2.44-4.92-3.4-4.72-1.8-7.4-3.96-7.4-8.32.0-4.76 3.36-8.2 9.32-8.2 3 0 4.76.52 5.96 1.16 1.2.6 2.12 1.56 2.12 2.8.0 1.4-.96 2.72-2.4 2.72-.84.0-1.56-.32-2.08-.52-1-.36-2.12-.76-3.56-.76-2.12.0-3.32 1.04-3.32 2.36.0 1.96 2.32 2.6 5.12 3.64 3.68 1.36 7.16 3.24 7.16 8.16.0 5.44-4.28 8.36-9.8 8.36-2.52.0-5.4-.76-7.6-2.16h0z"/><path class="cls-2" d="m474.78 132.9c-1.16-.76-1.92-1.64-1.92-3 0-1.56 1.24-2.68 2.76-2.68.92.0 1.64.44 2.36.92 1.16.72 2.48 1.48 4.64 1.48s3.56-1.08 3.56-2.56c0-1.88-2.4-2.44-4.92-3.4-4.72-1.8-7.4-3.96-7.4-8.32.0-4.76 3.36-8.2 9.32-8.2 3 0 4.76.52 5.96 1.16 1.2.6 2.12 1.56 2.12 2.8.0 1.4-.96 2.72-2.4 2.72-.84.0-1.56-.32-2.08-.52-1-.36-2.12-.76-3.56-.76-2.12.0-3.32 1.04-3.32 2.36.0 1.96 2.32 2.6 5.12 3.64 3.68 1.36 7.16 3.24 7.16 8.16.0 5.44-4.28 8.36-9.8 8.36-2.52.0-5.4-.76-7.6-2.16h0z"/><path class="cls-2" d="m517.02 121.14c0-8.24 6.32-14 14.16-14s14.12 5.76 14.12 14-6.32 14-14.12 14-14.16-5.72-14.16-14zm14.16 8.48c4.16.0 7.72-3.16 7.72-8.48s-3.56-8.48-7.72-8.48-7.76 3.16-7.76 8.48 3.6 8.48 7.76 8.48z"/><path class="cls-2" d="m571.62 131.86V110.5c0-1.56 1.32-2.96 3-2.96h6.56c6.64.0 9.92 4.08 9.92 8.64.0 3.6-1.96 6.24-4.72 7.68l5.16 5.84c.48.56.92 1.2.92 2.24.0 1.68-1.32 3-2.96 3-.92.0-1.8-.36-2.64-1.4l-6.8-8.44h-2.28v6.76c0 1.72-1.36 3.08-3.12 3.08s-3.04-1.36-3.04-3.08h0zm9.04-11.88c2.48.0 4.08-1.16 4.08-3.44s-1.6-3.56-4.08-3.56h-2.88v7h2.88z"/><path class="cls-2" d="m618.5 131.86v-21.48c0-1.68 1.32-3.04 3.08-3.04s3.08 1.36 3.08 3.04v21.48c0 1.72-1.32 3.08-3.08 3.08s-3.08-1.36-3.08-3.08z"/><path class="cls-2" d="m683.14 132.9c-1.16-.76-1.92-1.64-1.92-3 0-1.56 1.24-2.68 2.76-2.68.92.0 1.64.44 2.36.92 1.16.72 2.48 1.48 4.64 1.48s3.56-1.08 3.56-2.56c0-1.88-2.4-2.44-4.92-3.4-4.72-1.8-7.4-3.96-7.4-8.32.0-4.76 3.36-8.2 9.32-8.2 3 0 4.76.52 5.96 1.16 1.2.6 2.12 1.56 2.12 2.8.0 1.4-.96 2.72-2.4 2.72-.84.0-1.56-.32-2.08-.52-1-.36-2.12-.76-3.56-.76-2.12.0-3.32 1.04-3.32 2.36.0 1.96 2.32 2.6 5.12 3.64 3.68 1.36 7.16 3.24 7.16 8.16.0 5.44-4.28 8.36-9.8 8.36-2.52.0-5.4-.76-7.6-2.16h0z"/><path class="cls-2" d="m725.42 121.1c0-8.32 6.36-13.96 14.12-13.96 2.72.0 5 .6 6.24 1.24 1.6.84 2.4 1.72 2.4 3.12s-1.08 2.44-2.52 2.44c-.88.0-1.48-.32-2.12-.6-.96-.44-2.16-.76-3.84-.76-5.24.0-7.88 4.12-7.88 8.52s2.64 8.44 7.8 8.44c1.68.0 3.2-.4 4-.8.76-.36 1.6-.84 2.48-.84 1.36.0 2.56.96 2.56 2.52.0.96-.44 1.72-1.24 2.4-1.24 1.04-3.88 2.32-7.8 2.32-8.08.0-14.2-5.64-14.2-14.04h0z"/><path class="cls-2" d="m774.18 131.86v-21.48c0-1.68 1.32-3.04 3.08-3.04s3.08 1.36 3.08 3.04v8.08h11.44v-8.08c0-1.68 1.32-3.04 3.08-3.04s3.08 1.36 3.08 3.04v21.48c0 1.72-1.32 3.08-3.08 3.08s-3.08-1.36-3.08-3.08v-7.96h-11.44v7.96c0 1.72-1.32 3.08-3.08 3.08s-3.08-1.36-3.08-3.08z"/><path class="cls-2" d="m824.26 121.14c0-8.24 6.32-14 14.16-14s14.12 5.76 14.12 14-6.32 14-14.12 14-14.16-5.72-14.16-14zm14.16 8.48c4.16.0 7.72-3.16 7.72-8.48s-3.56-8.48-7.72-8.48-7.76 3.16-7.76 8.48 3.6 8.48 7.76 8.48z"/><path class="cls-2" d="m877.5 121.14c0-8.24 6.32-14 14.16-14s14.12 5.76 14.12 14-6.32 14-14.12 14-14.16-5.72-14.16-14zm14.16 8.48c4.16.0 7.72-3.16 7.72-8.48s-3.56-8.48-7.72-8.48-7.76 3.16-7.76 8.48 3.6 8.48 7.76 8.48z"/><path class="cls-2" d="m932.1 131.66v-21.28c0-1.68 1.32-3.04 3.08-3.04s3.08 1.36 3.08 3.04v18.92h7.72c1.56.0 2.76 1.16 2.76 2.72s-1.2 2.72-2.76 2.72h-10.84c-1.72.0-3.04-1.32-3.04-3.08z"/></g></g><g id="Layer_2-3" data-name="Layer 2"><g id="Layer_1-2-2" data-name="Layer 1-2"><path class="cls-3" d="m71.03 3.38c9.82-.01 19.53 2.13 28.44 6.26l4.71 2.42c3.9 2.2 7.57 4.78 10.96 7.71L78.76 20.9l38.95 1.21c11.42 10.89 18.66 25.44 20.45 41.11l-39.6 1.23 39.84 1.37c.13 1.69.19 3.4.19 5.13.0 1.97-.09 3.92-.26 5.84L91.9 78.83l46.04 1.52c-1.93 13.79-8.09 26.65-17.63 36.8-3.44 3.75-7.3 7.09-11.5 9.96 3.97 3.44 8.75 5.82 13.88 6.92-6.13-.72-11.99-2.97-17.02-6.54-2.06.25-4.13.48-6.19.69.04-.83.37-1.79 1.21-2.86-.93.77-1.61 1.79-1.97 2.94h0c-.34-1.55-.06-3.52 1.75-5.81.0.0-2.36 1.83-3.14 4.87.02-1.32.52-2.86 1.88-4.59.0.0-2.46 1.91-3.19 5.07-.6-1.62-1.6-3.05-2.92-4.16 1.5 1.9 1.95 3.58 1.87 4.98l-1.05.1c-.23-.83-.2-1.88.35-3.21-.49.72-.82 1.53-.99 2.38-.18-.95-.54-1.85-1.06-2.66.56 1.46.6 2.62.37 3.55-.84-1.29-1.23-3.16-.21-5.84.0.0-1.91 2.72-1.32 6.03h-.17c-.51-.99-.78-2.53.48-4.49-.65.68-1.12 1.5-1.39 2.4-.88-2.78-3.01-4.43-3.01-4.43 1.79 2.27 2.09 4.22 1.76 5.77-.75-1.03-1.24-2.51-1.1-4.67.0.0-.93 2.83.28 5.68-7.82.6-15.66.98-23.51 1.13l16.53-2.15c-1.97-.32-3.8-.72-5.53-1.18-.49-1.09-.56-2.6.9-4.46-.92.77-1.6 1.79-1.97 2.94-.34-1.55-.06-3.52 1.75-5.81.0.0-2.36 1.82-3.14 4.87.02-1.32.52-2.86 1.88-4.59.0.0-2.07 1.6-2.97 4.31-.43-.4-.82-.75-1.13-1.1-.19-.3-.39-.57-.58-.82-.19-.36-.29-.76-.29-1.16-.02-.84-1.04-.8-.86-1.85-.9.06-1.8.01-2.68-.16 2.31-.04 3.6-.41 3.88-1.12-1.19-1.29-.07-1.72-.78-3.39-.88-2.04-1.38-4.23-1.45-6.45.21 1.3.56 2.58 1.03 3.81-.07-3.27.37-6.52 1.3-9.65-1.49 1.24-2.97 2.48-4.43 3.75 5.98-5.84 9.99-12.48 11.76-19.88.95-4.06 1.24-8.25.86-12.4.0.0-2.29-.13-5.89-.56l4.96-.06c.02-1.41.17-2.81.45-4.19.04.57.08 1.14.13 1.7.23-.35 1.35-.72 2.07-.55.95-1.27-2.28-2.6-2.57-9.9-1.32 2.23-2.78 4.75-4.58 6.61 2.17-2.89 3.66-6.22 4.37-9.76-1.02 2.02-2.15 3.99-3.38 5.89 2.46-4.39 2.71-8.56 3.21-13.25.41-3.91 1-8.19 3.18-13.25-.39-3.81-3.31-5.44-5.63-11.02-.81.0-1.62.14-2.38.44.37-.23.78-.4 1.2-.52-.17-.13-.34-.26-.52-.39-.13-.29-.12-.98-.52-1.56-.78-1.14-.7-3.6-1.35-3.47-.31.06.13 1.41-.06 2.03-.36-.18-1.13-2.32-1.56-2.45s-.37.87.25 1.74c-1.12-.94-1.87-2.2-2.48-1.71-.16.13.75 1.18 1.73 2.2-1.78-1.31-2.65-2.05-2.8-1.17 2.57 1.82 2.79 3.79 4.89 5.91h-.02c-.11.11-.21.23-.28.36 1.16.88 1.85 2.09 2.34 3.55-.29-1-.67-1.98-1.12-2.93 2.2 3.1.9 3.94 3.29 8.66.3-.54.52-1.11.65-1.71.0 2.62-1.94 4.02-3.34 5.88s-.33 2.77-1.76 6.32c.22-1.03.35-2.08.39-3.13-1.01 3.9-4.48 4.21-7.26 6.18.8-.72 1.69-1.34 2.65-1.82-.4-1.74 1.08-1.85-.02-3.31-.59-.78-.18-2.29-2.86-3.52-.23-.53-.52-.91-.88-1.14-.91-.36-1.73-.89-2.44-1.56.72.31 1.47.55 2.24.7-2.08-.75-2.76-1.58-3.79-1.75-1.4-.22-2.57.54-3.8 2.13.45-.59.79-1.26.99-1.97-1.44 3.04-5.23 3.81-3.53 7.72-.39-.58-.67-1.22-.85-1.89.0 1 .32 1.98.9 2.8-.02.94.16 1.88.53 2.75-.16-.57-.21-1.16-.14-1.75.65 4.1 3.36 2.54 5.58 4.49-.86-.75-1.85-1.34-2.92-1.74 1.96.48 3.72 1.54 5.05 3.05.55-.49 1.09-.99 1.61-1.5-2.99 4.37-5.13 4.47-6.4 6.48-.94 1.48.68 2.9-.55 5.56.58-.88 1.02-1.86 1.29-2.88-.13 3.36-1.77 4.3-2.58 6.03-1.16 2.49-1.08 4.71 1.85 5.72 4.44.62 3.24-2.02 4.58-4.64-.48.67-.9 1.38-1.24 2.13.24-2.84 3.19-4.9 2.93-7.27 1.46.91 1.88 2.17 2.16 3.88 1.09-1.69 1.95-3.53 2.54-5.46-.38 2.5-1.13 4.92-2.23 7.19 1.48-1.91 2.64-4.04 3.44-6.32-.85 3.66-2.52 7.08-4.91 9.99-.42.52-1.07 1.29-.53 1.97-3.22 6.1.67 7.84-.18 12.94.59-1.57 1.57-5.07 1.45-6.74.65 3.85-.98 7.61-1.54 10.11-.42 1.88 1.25 4.16.13 7.69.8-.97 4.33-5.89 4.72-7.08-.43 2.84-4.95 9.17-7.34 10.77-1.07 2.19-1.81 4.17-3.85 5.93l-42.83-1.33c-2.28-3.72-4.19-7.66-5.7-11.76 8.9-.29 17.81-.57 26.74-.85l-27.35-.85c-5.97-17.65-4.4-36.97 4.33-53.43l32.22-1-31.14-.96c1.02-1.78 2.12-3.5 3.3-5.17l47.63-1.48-45.49-1.41C30.25 13.48 49.46 3.37 71.03 3.37h0zM74 19.84c.28-1.16.27-1.32 1.44-1.44l-1.42-.33c.08.0.16-.01.23-.02l-.26-1.12s-.01-.01-.02.0c-.28 1.16-.27 1.32-1.44 1.44-.16.02.88.29 1.43.19-.12.05-.25.09-.38.1.44.3.35 1.19.4 1.2h.01s0 0 0 0h0zm4.32-.03c1.1-4.52 1.04-5.19 5.65-5.66v-.11c-2.07-.48-3.43-.96-5.58-1.2.3-.03.61-.05.92-.06-.37-.86-.63-1.76-.78-2.69-.09-.49-.16-1.05-.22-1.71.0-.03-.02-.05-.05-.05s-.05.02-.06.04c-1.1 4.52-1.04 5.19-5.65 5.66v.1c1.88.45 3.65 1.01 5.61.62-.47.2-.96.33-1.47.39.96.65 1.47 2.19 1.52 4.64h.1v.01zm-3.33-8.97c.28-1.16.26-1.32 1.44-1.44l-1.42-.33c.08.0.16-.01.23-.01-.09-.22-.16-.45-.2-.69l-.07-.45s-.01.0-.01.01c-.28 1.16-.27 1.32-1.45 1.44-.16.02.87.29 1.43.19-.12.05-.25.09-.38.1.44.3.35 1.19.4 1.2.0.0.01.0.01-.01h0zm6.52.46c.25-1.02.23-1.16 1.27-1.27l-1.25-.29c.07.0.14-.01.21-.01l-.22-.99s0-.01-.01-.01h-.01c-.25 1.02-.23 1.16-1.27 1.27-.14.01.78.26 1.26.16-.1.05-.22.08-.33.09.4.26.33 1.21.36 1.04h0zM62.45 123.29c-.3-.34-.45-.69-.34-1.03.08-.31.24-.59.47-.82.61-1.22.94-2.09.98-2.62-.39-.17-.54-.46-.47-.88.9-.98-.54-1.52-.44-2.95.09-1.35 1.46-2.12 1.46-4.62-.23.99-.64 1.94-1.22 2.77.25-1.15.17-2.35-.22-3.47.84-.9 1.77-1.72 2.78-2.43-4.04 2.03-4.83 4.77-9.65 6.86.62-.14 1.24-.3 1.85-.47-1.95 1.82-.48 3.36-2.27 3.34-.97-.32-1.85-.86-2.58-1.57.58.84 1.41 1.48 2.37 1.82-.72.9-1.11 1.56-.8 2.2.52 1.06-.28 1.7-.28 3.13l8.37.75h0zm-13.18-1.18c-.13-.35-.26-.68-.41-1-2.27-4.97-2.78-7.15-1.03-7.16 1.17.05 2.34-.21 3.38-.74-1.09-3.45 2.08-1.43 8.49-7.86-1.47 1.2-3.08 2.22-4.8 3.04.44-.29.86-.6 1.26-.94l-41.15 1.27c.81 1.2 1.66 2.37 2.54 3.51h-.01c4.58 6.02 10.14 11.22 16.44 15.39-4.97 3.5-10.55 6.05-16.45 7.53h0c10.44-2.03 20.21-6.61 28.46-13.32l3.28.29z"/><path class="cls-3" d="m125.82 19.28s.02-.05.04-.05c4.32-.89 4.95-.82 5.55-5.17.0-.02.02-.04.05-.04.02.0.05.02.05.04.36 1.79.83 3.49.41 5.34.21-.44.35-.9.42-1.38.58.93 2.03 1.46 4.35 1.59.03.0.04.02.05.05.0.02-.02.05-.04.05-4.32.89-4.95.82-5.55 5.17.0.02-.02.04-.05.05-.03.0-.05-.02-.05-.04-.13-.65-.24-1.2-.35-1.7h0c-.06-.29-.13-.56-.19-.8-.2-.93-.34-1.88-.41-2.83-.04.29-.06.58-.08.87-.8-.37-1.65-.65-2.52-.82h0c-.46-.1-.99-.18-1.61-.27-.02.0-.04-.02-.04-.05z"/><path class="cls-3" d="m133.57 28.69s.01-.03.03-.04c3.03-.63 3.47-.57 3.89-3.63.0-.02.02-.03.03-.03.02.0.03.01.04.03.26 1.26.59 2.45.28 3.75.15-.31.25-.63.3-.97.41.65 1.42 1.03 3.05 1.12.02.0.03.02.03.03.0.02-.01.03-.03.03-3.03.63-3.47.57-3.89 3.63.0.02-.02.03-.03.03-.02.0-.03-.01-.04-.03-.09-.45-.17-.84-.25-1.19h0c-.05-.2-.09-.39-.13-.56-.14-.65-.24-1.32-.29-1.98-.02.2-.04.41-.06.61-.56-.26-1.16-.45-1.77-.57h0c-.32-.07-.69-.13-1.13-.19-.02.0-.04-.02-.04-.04z"/><path class="cls-3" d="m9.24 9.64s.03-.08.07-.09c7.73-1.75 8.86-1.64 9.78-9.47.0-.04.04-.08.09-.08s.09.03.09.07c.72 3.21 1.61 6.24.9 9.56.36-.79.6-1.63.71-2.5 1.07 1.65 3.69 2.56 7.85 2.71.05.0.09.04.09.09.0.04-.03.08-.08.08-7.73 1.75-8.85 1.63-9.78 9.47.0.04-.04.08-.09.08s-.08-.03-.09-.07c-.26-1.15-.48-2.16-.69-3.03h0c-.13-.52-.25-.99-.37-1.43-.39-1.67-.67-3.36-.83-5.06-.05.52-.09 1.04-.12 1.56-1.46-.65-2.99-1.11-4.56-1.38h0c-.82-.16-1.78-.29-2.9-.43-.04.0-.08-.04-.08-.09z"/><path class="cls-3" d="m4.49 19.22s.02-.05.04-.05c4.32-.89 4.95-.82 5.55-5.17.0-.02.02-.04.05-.04.02.0.05.02.05.04.37 1.79.83 3.49.41 5.34.21-.44.35-.9.42-1.38.58.93 2.03 1.46 4.34 1.59.03.0.04.02.05.05.0.02-.02.05-.04.05-4.32.89-4.95.82-5.55 5.17.0.03-.03.05-.06.04-.02.0-.03-.02-.04-.04-.13-.65-.24-1.21-.35-1.7h0c-.06-.29-.13-.56-.19-.8-.2-.93-.34-1.88-.41-2.83-.03.29-.06.58-.08.87-.8-.37-1.65-.65-2.52-.82h0c-.46-.1-.99-.18-1.61-.27-.02.0-.04-.02-.04-.05z"/><path class="cls-3" d="m0 28.63s.01-.03.03-.03c3.03-.63 3.47-.57 3.89-3.63.0-.02.02-.03.03-.03.02.0.03.01.04.03.26 1.26.58 2.45.28 3.75.15-.31.25-.63.29-.97.41.65 1.42 1.02 3.05 1.11.02.0.03.02.03.03.0.02-.01.03-.03.04-3.03.62-3.47.57-3.89 3.63.0.02-.02.03-.04.03-.01.0-.03-.01-.03-.03-.09-.45-.17-.84-.25-1.19h0c-.04-.2-.09-.39-.13-.56-.14-.65-.24-1.32-.29-1.98-.02.2-.04.4-.06.61-.56-.26-1.16-.46-1.77-.57h0c-.32-.07-.69-.13-1.13-.19-.02.0-.03-.02-.03-.03z"/><path class="cls-3" d="m139.76 91.23s.02-.06.05-.07c5.76-1.19 6.6-1.09 7.39-6.9.01-.04.05-.05.09-.04.02.0.03.02.04.04.49 2.39 1.11 4.65.54 7.11.28-.58.47-1.2.57-1.84.78 1.24 2.71 1.95 5.79 2.12.03.0.06.03.06.07.0.03-.02.06-.05.07-5.77 1.19-6.6 1.09-7.4 6.9-.01.04-.05.05-.09.04-.02.0-.03-.02-.04-.04-.18-.86-.32-1.61-.47-2.26h0c-.09-.39-.17-.74-.26-1.07-.27-1.24-.45-2.5-.55-3.77-.05.39-.08.77-.11 1.16-1.07-.5-2.2-.86-3.36-1.09h0c-.61-.13-1.32-.24-2.15-.36-.04.0-.06-.03-.06-.07z"/></g></g></g></svg>