<svg id="visual" viewBox="0 0 900 600" width="900" height="600" xmlns="http://www.w3.org/2000/svg" xmlns:xlink="http://www.w3.org/1999/xlink" version="1.1"><rect x="0" y="0" width="900" height="600" fill="#FFFFFF"></rect><path d="M763 600L751.7 580C740.3 560 717.7 520 711.7 480C705.7 440 716.3 400 710.2 360C704 320 681 280 674 240C667 200 676 160 691 120C706 80 727 40 737.5 20L748 0L900 0L900 20C900 40 900 80 900 120C900 160 900 200 900 240C900 280 900 320 900 360C900 400 900 440 900 480C900 520 900 560 900 580L900 600Z" fill="#ffc5fe" stroke-linecap="round" stroke-linejoin="miter"></path></svg>