<svg id="visual" viewBox="0 0 900 600" width="900" height="600" xmlns="http://www.w3.org/2000/svg" xmlns:xlink="http://www.w3.org/1999/xlink" version="1.1"><rect x="0" y="0" width="900" height="600" fill="#ffffff"></rect><defs><linearGradient id="grad1_0" x1="33.3%" y1="100%" x2="100%" y2="0%"><stop offset="20%" stop-color="#ffc3db" stop-opacity="1"></stop><stop offset="80%" stop-color="#ffc3db" stop-opacity="1"></stop></linearGradient></defs><defs><linearGradient id="grad1_1" x1="33.3%" y1="100%" x2="100%" y2="0%"><stop offset="20%" stop-color="#ffc3db" stop-opacity="1"></stop><stop offset="80%" stop-color="#ffd2e4" stop-opacity="1"></stop></linearGradient></defs><defs><linearGradient id="grad1_2" x1="33.3%" y1="100%" x2="100%" y2="0%"><stop offset="20%" stop-color="#ffe1ed" stop-opacity="1"></stop><stop offset="80%" stop-color="#ffd2e4" stop-opacity="1"></stop></linearGradient></defs><defs><linearGradient id="grad1_3" x1="33.3%" y1="100%" x2="100%" y2="0%"><stop offset="20%" stop-color="#ffe1ed" stop-opacity="1"></stop><stop offset="80%" stop-color="#fff0f6" stop-opacity="1"></stop></linearGradient></defs><defs><linearGradient id="grad1_4" x1="33.3%" y1="100%" x2="100%" y2="0%"><stop offset="20%" stop-color="#ffffff" stop-opacity="1"></stop><stop offset="80%" stop-color="#fff0f6" stop-opacity="1"></stop></linearGradient></defs><defs><linearGradient id="grad2_0" x1="0%" y1="100%" x2="66.7%" y2="0%"><stop offset="20%" stop-color="#ffc3db" stop-opacity="1"></stop><stop offset="80%" stop-color="#ffc3db" stop-opacity="1"></stop></linearGradient></defs><defs><linearGradient id="grad2_1" x1="0%" y1="100%" x2="66.7%" y2="0%"><stop offset="20%" stop-color="#ffd2e4" stop-opacity="1"></stop><stop offset="80%" stop-color="#ffc3db" stop-opacity="1"></stop></linearGradient></defs><defs><linearGradient id="grad2_2" x1="0%" y1="100%" x2="66.7%" y2="0%"><stop offset="20%" stop-color="#ffd2e4" stop-opacity="1"></stop><stop offset="80%" stop-color="#ffe1ed" stop-opacity="1"></stop></linearGradient></defs><defs><linearGradient id="grad2_3" x1="0%" y1="100%" x2="66.7%" y2="0%"><stop offset="20%" stop-color="#fff0f6" stop-opacity="1"></stop><stop offset="80%" stop-color="#ffe1ed" stop-opacity="1"></stop></linearGradient></defs><defs><linearGradient id="grad2_4" x1="0%" y1="100%" x2="66.7%" y2="0%"><stop offset="20%" stop-color="#fff0f6" stop-opacity="1"></stop><stop offset="80%" stop-color="#ffffff" stop-opacity="1"></stop></linearGradient></defs><g transform="translate(900, 600)"><path d="M-486.7 0C-477.4 -91 -468 -181.9 -421.5 -243.4C-375.1 -304.8 -291.4 -336.7 -215 -372.4C-138.6 -408 -69.3 -447.4 0 -486.7L0 0Z" fill="#fff8fa"></path><path d="M-389.4 0C-381.9 -72.8 -374.4 -145.5 -337.2 -194.7C-300 -243.9 -233.2 -269.4 -172 -297.9C-110.8 -326.4 -55.4 -357.9 0 -389.4L0 0Z" fill="#ffe9f1"></path><path d="M-292 0C-286.4 -54.6 -280.8 -109.2 -252.9 -146C-225 -182.9 -174.9 -202 -129 -223.4C-83.1 -244.8 -41.6 -268.4 0 -292L0 0Z" fill="#ffdae8"></path><path d="M-194.7 0C-191 -36.4 -187.2 -72.8 -168.6 -97.3C-150 -121.9 -116.6 -134.7 -86 -149C-55.4 -163.2 -27.7 -179 0 -194.7L0 0Z" fill="#ffcbdf"></path><path d="M-97.3 0C-95.5 -18.2 -93.6 -36.4 -84.3 -48.7C-75 -61 -58.3 -67.3 -43 -74.5C-27.7 -81.6 -13.9 -89.5 0 -97.3L0 0Z" fill="#ffc3db"></path></g><g transform="translate(0, 0)"><path d="M486.7 0C392.4 37.5 298.1 75.1 269.3 155.5C240.6 235.9 277.3 359.2 243.4 421.5C209.4 483.9 104.7 485.3 0 486.7L0 0Z" fill="#fff8fa"></path><path d="M389.4 0C313.9 30 238.5 60.1 215.5 124.4C192.4 188.7 221.9 287.3 194.7 337.2C167.5 387.1 83.8 388.3 0 389.4L0 0Z" fill="#ffe9f1"></path><path d="M292 0C235.5 22.5 178.9 45.1 161.6 93.3C144.3 141.5 166.4 215.5 146 252.9C125.6 290.3 62.8 291.2 0 292L0 0Z" fill="#ffdae8"></path><path d="M194.7 0C157 15 119.2 30 107.7 62.2C96.2 94.4 110.9 143.7 97.3 168.6C83.8 193.6 41.9 194.1 0 194.7L0 0Z" fill="#ffcbdf"></path><path d="M97.3 0C78.5 7.5 59.6 15 53.9 31.1C48.1 47.2 55.5 71.8 48.7 84.3C41.9 96.8 20.9 97.1 0 97.3L0 0Z" fill="#ffc3db"></path></g></svg>