<svg id="visual" viewBox="0 0 900 600" width="900" height="600" xmlns="http://www.w3.org/2000/svg" xmlns:xlink="http://www.w3.org/1999/xlink" version="1.1"><rect x="0" y="0" width="900" height="600" fill="#ffffff"></rect><defs><linearGradient id="grad1_0" x1="33.3%" y1="100%" x2="100%" y2="0%"><stop offset="20%" stop-color="#ffdae9" stop-opacity="1"></stop><stop offset="80%" stop-color="#ffdae9" stop-opacity="1"></stop></linearGradient></defs><defs><linearGradient id="grad1_1" x1="33.3%" y1="100%" x2="100%" y2="0%"><stop offset="20%" stop-color="#ffdae9" stop-opacity="1"></stop><stop offset="80%" stop-color="#ffe3ee" stop-opacity="1"></stop></linearGradient></defs><defs><linearGradient id="grad1_2" x1="33.3%" y1="100%" x2="100%" y2="0%"><stop offset="20%" stop-color="#ffedf4" stop-opacity="1"></stop><stop offset="80%" stop-color="#ffe3ee" stop-opacity="1"></stop></linearGradient></defs><defs><linearGradient id="grad1_3" x1="33.3%" y1="100%" x2="100%" y2="0%"><stop offset="20%" stop-color="#ffedf4" stop-opacity="1"></stop><stop offset="80%" stop-color="#fff6f9" stop-opacity="1"></stop></linearGradient></defs><defs><linearGradient id="grad1_4" x1="33.3%" y1="100%" x2="100%" y2="0%"><stop offset="20%" stop-color="#ffffff" stop-opacity="1"></stop><stop offset="80%" stop-color="#fff6f9" stop-opacity="1"></stop></linearGradient></defs><defs><linearGradient id="grad2_0" x1="0%" y1="100%" x2="66.7%" y2="0%"><stop offset="20%" stop-color="#ffdae9" stop-opacity="1"></stop><stop offset="80%" stop-color="#ffdae9" stop-opacity="1"></stop></linearGradient></defs><defs><linearGradient id="grad2_1" x1="0%" y1="100%" x2="66.7%" y2="0%"><stop offset="20%" stop-color="#ffe3ee" stop-opacity="1"></stop><stop offset="80%" stop-color="#ffdae9" stop-opacity="1"></stop></linearGradient></defs><defs><linearGradient id="grad2_2" x1="0%" y1="100%" x2="66.7%" y2="0%"><stop offset="20%" stop-color="#ffe3ee" stop-opacity="1"></stop><stop offset="80%" stop-color="#ffedf4" stop-opacity="1"></stop></linearGradient></defs><defs><linearGradient id="grad2_3" x1="0%" y1="100%" x2="66.7%" y2="0%"><stop offset="20%" stop-color="#fff6f9" stop-opacity="1"></stop><stop offset="80%" stop-color="#ffedf4" stop-opacity="1"></stop></linearGradient></defs><defs><linearGradient id="grad2_4" x1="0%" y1="100%" x2="66.7%" y2="0%"><stop offset="20%" stop-color="#fff6f9" stop-opacity="1"></stop><stop offset="80%" stop-color="#ffffff" stop-opacity="1"></stop></linearGradient></defs><g transform="translate(900, 600)"><path d="M-459.7 0C-454 -91.4 -448.3 -182.7 -398.1 -229.9C-347.9 -277 -253.3 -280 -179.5 -310.9C-105.7 -341.8 -52.9 -400.8 0 -459.7L0 0Z" fill="#fffafc"></path><path d="M-367.8 0C-363.2 -73.1 -358.6 -146.2 -318.5 -183.9C-278.3 -221.6 -202.6 -224 -143.6 -248.7C-84.6 -273.5 -42.3 -320.6 0 -367.8L0 0Z" fill="#fff1f7"></path><path d="M-275.8 0C-272.4 -54.8 -269 -109.6 -238.9 -137.9C-208.8 -166.2 -152 -168 -107.7 -186.5C-63.4 -205.1 -31.7 -240.5 0 -275.8L0 0Z" fill="#ffe8f1"></path><path d="M-183.9 0C-181.6 -36.5 -179.3 -73.1 -159.2 -91.9C-139.2 -110.8 -101.3 -112 -71.8 -124.4C-42.3 -136.7 -21.1 -160.3 0 -183.9L0 0Z" fill="#ffdfec"></path><path d="M-91.9 0C-90.8 -18.3 -89.7 -36.5 -79.6 -46C-69.6 -55.4 -50.7 -56 -35.9 -62.2C-21.1 -68.4 -10.6 -80.2 0 -91.9L0 0Z" fill="#ffdae9"></path></g><g transform="translate(0, 0)"><path d="M459.7 0C411.4 59 363.1 118 330.8 191C298.6 264 282.3 351 229.9 398.1C177.4 445.2 88.7 452.5 0 459.7L0 0Z" fill="#fffafc"></path><path d="M367.8 0C329.1 47.2 290.5 94.4 264.7 152.8C238.8 211.2 225.9 280.8 183.9 318.5C141.9 356.2 71 362 0 367.8L0 0Z" fill="#fff1f7"></path><path d="M275.8 0C246.8 35.4 217.9 70.8 198.5 114.6C179.1 158.4 169.4 210.6 137.9 238.9C106.4 267.1 53.2 271.5 0 275.8L0 0Z" fill="#ffe8f1"></path><path d="M183.9 0C164.6 23.6 145.2 47.2 132.3 76.4C119.4 105.6 112.9 140.4 91.9 159.2C71 178.1 35.5 181 0 183.9L0 0Z" fill="#ffdfec"></path><path d="M91.9 0C82.3 11.8 72.6 23.6 66.2 38.2C59.7 52.8 56.5 70.2 46 79.6C35.5 89 17.7 90.5 0 91.9L0 0Z" fill="#ffdae9"></path></g></svg>