<svg id="visual" viewBox="0 0 900 600" width="900" height="600" xmlns="http://www.w3.org/2000/svg" xmlns:xlink="http://www.w3.org/1999/xlink" version="1.1"><rect x="0" y="0" width="900" height="600" fill="#ffffff"></rect><defs><linearGradient id="grad1_0" x1="33.3%" y1="0%" x2="100%" y2="100%"><stop offset="20%" stop-color="#ffdae9" stop-opacity="1"></stop><stop offset="80%" stop-color="#ffdae9" stop-opacity="1"></stop></linearGradient></defs><defs><linearGradient id="grad1_1" x1="33.3%" y1="0%" x2="100%" y2="100%"><stop offset="20%" stop-color="#ffdae9" stop-opacity="1"></stop><stop offset="80%" stop-color="#ffe3ee" stop-opacity="1"></stop></linearGradient></defs><defs><linearGradient id="grad1_2" x1="33.3%" y1="0%" x2="100%" y2="100%"><stop offset="20%" stop-color="#ffedf4" stop-opacity="1"></stop><stop offset="80%" stop-color="#ffe3ee" stop-opacity="1"></stop></linearGradient></defs><defs><linearGradient id="grad1_3" x1="33.3%" y1="0%" x2="100%" y2="100%"><stop offset="20%" stop-color="#ffedf4" stop-opacity="1"></stop><stop offset="80%" stop-color="#fff6f9" stop-opacity="1"></stop></linearGradient></defs><defs><linearGradient id="grad1_4" x1="33.3%" y1="0%" x2="100%" y2="100%"><stop offset="20%" stop-color="#ffffff" stop-opacity="1"></stop><stop offset="80%" stop-color="#fff6f9" stop-opacity="1"></stop></linearGradient></defs><defs><linearGradient id="grad2_0" x1="0%" y1="0%" x2="66.7%" y2="100%"><stop offset="20%" stop-color="#ffdae9" stop-opacity="1"></stop><stop offset="80%" stop-color="#ffdae9" stop-opacity="1"></stop></linearGradient></defs><defs><linearGradient id="grad2_1" x1="0%" y1="0%" x2="66.7%" y2="100%"><stop offset="20%" stop-color="#ffe3ee" stop-opacity="1"></stop><stop offset="80%" stop-color="#ffdae9" stop-opacity="1"></stop></linearGradient></defs><defs><linearGradient id="grad2_2" x1="0%" y1="0%" x2="66.7%" y2="100%"><stop offset="20%" stop-color="#ffe3ee" stop-opacity="1"></stop><stop offset="80%" stop-color="#ffedf4" stop-opacity="1"></stop></linearGradient></defs><defs><linearGradient id="grad2_3" x1="0%" y1="0%" x2="66.7%" y2="100%"><stop offset="20%" stop-color="#fff6f9" stop-opacity="1"></stop><stop offset="80%" stop-color="#ffedf4" stop-opacity="1"></stop></linearGradient></defs><defs><linearGradient id="grad2_4" x1="0%" y1="0%" x2="66.7%" y2="100%"><stop offset="20%" stop-color="#fff6f9" stop-opacity="1"></stop><stop offset="80%" stop-color="#ffffff" stop-opacity="1"></stop></linearGradient></defs><g transform="translate(900, 0)"><path d="M0 459.7C-73.9 437.3 -147.9 414.8 -219 379.3C-290.1 343.8 -358.5 295.3 -398.1 229.9C-437.8 164.5 -448.7 82.2 -459.7 0L0 0Z" fill="#fffafc"></path><path d="M0 367.8C-59.1 349.8 -118.3 331.9 -175.2 303.5C-232.1 275.1 -286.8 236.2 -318.5 183.9C-350.2 131.6 -359 65.8 -367.8 0L0 0Z" fill="#fff1f7"></path><path d="M0 275.8C-44.4 262.4 -88.7 248.9 -131.4 227.6C-174.1 206.3 -215.1 177.2 -238.9 137.9C-262.7 98.7 -269.2 49.3 -275.8 0L0 0Z" fill="#ffe8f1"></path><path d="M0 183.9C-29.6 174.9 -59.1 165.9 -87.6 151.7C-116.1 137.5 -143.4 118.1 -159.2 91.9C-175.1 65.8 -179.5 32.9 -183.9 0L0 0Z" fill="#ffdfec"></path><path d="M0 91.9C-14.8 87.5 -29.6 83 -43.8 75.9C-58 68.8 -71.7 59.1 -79.6 46C-87.6 32.9 -89.7 16.4 -91.9 0L0 0Z" fill="#ffdae9"></path></g><g transform="translate(0, 600)"><path d="M0 -459.7C26.7 -355.5 53.5 -251.3 130.5 -226C207.5 -200.7 334.9 -254.4 398.1 -229.9C461.4 -205.3 460.5 -102.7 459.7 0L0 0Z" fill="#fffafc"></path><path d="M0 -367.8C21.4 -284.4 42.8 -201.1 104.4 -180.8C166 -160.6 267.9 -203.5 318.5 -183.9C369.1 -164.3 368.4 -82.1 367.8 0L0 0Z" fill="#fff1f7"></path><path d="M0 -275.8C16 -213.3 32.1 -150.8 78.3 -135.6C124.5 -120.4 200.9 -152.6 238.9 -137.9C276.8 -123.2 276.3 -61.6 275.8 0L0 0Z" fill="#ffe8f1"></path><path d="M0 -183.9C10.7 -142.2 21.4 -100.5 52.2 -90.4C83 -80.3 133.9 -101.7 159.2 -91.9C184.5 -82.1 184.2 -41.1 183.9 0L0 0Z" fill="#ffdfec"></path><path d="M0 -91.9C5.3 -71.1 10.7 -50.3 26.1 -45.2C41.5 -40.1 67 -50.9 79.6 -46C92.3 -41.1 92.1 -20.5 91.9 0L0 0Z" fill="#ffdae9"></path></g></svg>