<?xml version="1.0" encoding="UTF-8"?>
<svg version="1.1" viewBox="0 0 2048 2048" width="1280" height="1280" xmlns="http://www.w3.org/2000/svg">

<!-- Define the golden gradient -->
<defs>
  <linearGradient id="goldenGradient" x1="0%" y1="0%" x2="100%" y2="100%">
    <stop offset="0%" style="stop-color:#FCC201;stop-opacity:1" />
    <stop offset="100%" style="stop-color:#aa7a1a;stop-opacity:1" />
  </linearGradient>
</defs>

<!-- Apply the golden gradient to each path -->
<path transform="translate(632,401)" d="m0 0h17l17 3 21 7 95 38 215 86 18 8 16 9 13 11 9 10 9 14 6 12 5 17 2 12v18l-4 20-5 13-8 15-7 9-9 10-11 9-18 10-15 5-15 3h-27l-17-4-31-12-158-63-8-3v25l-3 166 12 2 188 40 29 7 16 6 12 7 13 10 11 11 10 15 6 12 5 15 22 92 29 121 5 23 1 7v19l-3 17-6 16-9 17-8 10h-2l-2 4-13 11-16 9-13 5-16 4-6 1h-23l-18-4-13-5-13-7-10-8-10-9-10-13-9-16-5-15-10-41-30-125-5-2-78-17-57-12-8-1-15 47-22 72-9 28-15 49-9 28-18 58-20 64-11 35-7 17-9 14-9 10-7 7-10 7-15 8-14 5-15 3-17 1-18-2-16-5-17-8-12-9-14-14-10-14-8-17-5-20-1-10v-9l3-20 14-46 23-74 24-77 17-55 23-74 11-36 9-28 15-49 6-19 1-5 1-26 3-163 2-120 2-104 2-19 4-14 5-12 7-12 10-13 8-8 15-11 17-8 14-4z" fill="url(#goldenGradient)" />
<path transform="translate(1361,1197)" d="m0 0h374l11 4 8 7 6 9 2 7v731l-2 9-6 9-8 7-7 3-7 1h-369l-9-3-6-4-8-9-3-7-1-5v-733l5-12 5-6 9-6z" fill="url(#goldenGradient)" />
<path transform="translate(839,1388)" d="m0 0h364l13 2 9 5 7 8 4 8 1 6v534l-1 10-5 10-8 8-9 4-7 1h-369l-11-4-8-7-4-5-4-11v-542l4-11 9-10 10-5z" fill="url(#goldenGradient)" />
<path transform="translate(312,1580)" d="m0 0h372l10 3 8 6 6 7 3 7 1 6v341l-2 13-6 10-8 7-8 3-7 1h-368l-9-3-6-4-7-7-4-8-2-15v-329l1-13 4-9 3-5h2l2-4 9-5z" fill="url(#goldenGradient)" />
<path transform="translate(692,63)" d="m0 0h15l18 2 17 4 20 8 18 10 14 11 13 12 10 12 9 14 8 15 6 16 4 17 2 16v21l-3 20-5 18-8 18-8 14-10 13-11 12-10 9-13 9-16 9-18 7-20 5-18 2h-15l-18-2-17-4-18-7-17-9-14-10-12-11-9-9-11-15-8-14-6-13-6-18-3-16-1-11v-14l2-18 5-21 7-17 9-17 12-16 18-18 17-12 21-11 21-7 17-3z" fill="url(#goldenGradient)" />

</svg>
